<svg
 xmlns="http://www.w3.org/2000/svg"
 xmlns:xlink="http://www.w3.org/1999/xlink"
 width="29px" height="30px">
<path fill-rule="evenodd"  fill="rgb(102, 102, 102)"
 d="M28.115,23.507 L22.687,23.507 C21.817,27.223 18.478,30.000 14.500,30.000 C10.522,30.000 7.183,27.223 6.313,23.507 L0.884,23.507 C0.396,23.507 0.000,23.111 0.000,22.623 L0.000,2.641 C0.000,2.153 0.396,1.757 0.884,1.757 L6.899,1.757 L6.899,0.884 C6.899,0.396 7.295,-0.000 7.784,-0.000 C8.272,-0.000 8.668,0.396 8.668,0.884 L8.668,1.757 L13.615,1.757 L13.615,0.884 C13.615,0.396 14.012,-0.000 14.500,-0.000 C14.988,-0.000 15.384,0.396 15.384,0.884 L15.384,1.757 L20.551,1.757 L20.551,0.884 C20.551,0.396 20.947,-0.000 21.436,-0.000 C21.924,-0.000 22.320,0.396 22.320,0.884 L22.320,1.757 L28.115,1.757 C28.604,1.757 29.000,2.153 29.000,2.641 L29.000,22.623 C29.000,23.111 28.604,23.507 28.115,23.507 ZM14.500,28.231 C18.162,28.231 21.141,25.253 21.141,21.591 C21.141,17.929 18.162,14.951 14.500,14.951 C10.838,14.951 7.859,17.930 7.859,21.591 C7.859,25.253 10.838,28.231 14.500,28.231 ZM1.769,21.738 L6.094,21.738 C6.093,21.689 6.090,21.640 6.090,21.591 C6.090,16.954 9.863,13.182 14.500,13.182 C19.137,13.182 22.910,16.954 22.910,21.591 C22.910,21.640 22.907,21.689 22.906,21.738 L27.231,21.738 L27.231,8.910 L1.769,8.910 L1.769,21.738 ZM27.231,3.525 L22.320,3.525 L22.320,4.324 C22.320,4.813 21.924,5.209 21.436,5.209 C20.947,5.209 20.551,4.813 20.551,4.324 L20.551,3.525 L15.384,3.525 L15.384,4.324 C15.384,4.813 14.988,5.209 14.500,5.209 C14.012,5.209 13.615,4.813 13.615,4.324 L13.615,3.525 L8.668,3.525 L8.668,4.324 C8.668,4.813 8.272,5.209 7.784,5.209 C7.295,5.209 6.899,4.813 6.899,4.324 L6.899,3.525 L1.769,3.525 L1.769,7.142 L27.231,7.142 L27.231,3.525 ZM14.500,16.652 C14.988,16.652 15.384,17.048 15.384,17.536 L15.384,21.814 L17.158,23.588 C17.503,23.933 17.503,24.493 17.158,24.839 C16.985,25.011 16.759,25.098 16.533,25.098 C16.306,25.098 16.080,25.011 15.907,24.839 L13.874,22.806 C13.709,22.640 13.615,22.415 13.615,22.181 L13.615,17.536 C13.615,17.048 14.012,16.652 14.500,16.652 Z"/>
</svg>
