<?xml version="1.0" encoding="utf-8"?>
<!-- Generator: Adobe Illustrator 22.1.0, SVG Export Plug-In . SVG Version: 6.00 Build 0)  -->
<svg version="1.1" id="Capa_1" xmlns="http://www.w3.org/2000/svg" xmlns:xlink="http://www.w3.org/1999/xlink" x="0px" y="0px"
	 viewBox="0 0 60 60" style="enable-background:new 0 0 60 60;" xml:space="preserve">
<g>
	<path d="M30,0C13.5,0,0,13.5,0,30s13.5,30,30,30s30-13.5,30-30S46.5,0,30,0z M30,56.8c-14.8,0-26.8-12-26.8-26.8
		c0-14.8,12-26.8,26.8-26.8c14.8,0,26.8,12,26.8,26.8C56.8,44.8,44.8,56.8,30,56.8z"/>
	<path d="M30,5.9c-0.9,0-1.6,0.7-1.6,1.6v21.9H14.3c-0.9,0-1.6,0.7-1.6,1.6c0,0.9,0.7,1.6,1.6,1.6H30c0.9,0,1.6-0.7,1.6-1.6V7.5
		C31.6,6.6,30.9,5.9,30,5.9z"/>
</g>
</svg>
