<?xml version="1.0" encoding="utf-8"?>
<!-- Generator: Adobe Illustrator 22.1.0, SVG Export Plug-In . SVG Version: 6.00 Build 0)  -->
<svg version="1.1" id="Capa_1" xmlns="http://www.w3.org/2000/svg" xmlns:xlink="http://www.w3.org/1999/xlink" x="0px" y="0px"
	 viewBox="0 0 48 28" style="enable-background:new 0 0 48 28;" xml:space="preserve">
<style type="text/css">
	.st0{fill:#666666;}
</style>
<g>
	<g>
		<g>
			<path class="st0" d="M40.6,12.6h-6.2c-1.3,0-2.5,0.3-3.6,1c-1,0.5-1.8,1.3-2.4,2.1c-0.4-0.1-0.9-0.1-1.3-0.1h-6.2
				c-0.4,0-0.9,0-1.3,0.1c-0.6-0.9-1.4-1.6-2.4-2.1c-1.1-0.6-2.4-1-3.6-1H7.4C3.3,12.6,0,15.9,0,20v4.2C0,24.7,0.4,25,0.8,25h12.7
				v2.2c0,0.4,0.4,0.8,0.8,0.8h19.5c0.4,0,0.8-0.4,0.8-0.8V25h12.7c0.4,0,0.8-0.4,0.8-0.8V20C48,15.9,44.7,12.6,40.6,12.6z
				 M13.5,22.3v0.2c0,0.1,0,0.2,0,0.2V23v0.4h-12V20c0-3.2,2.6-5.8,5.8-5.8h6.2c1,0,2,0.3,2.9,0.7c0.6,0.3,1.1,0.8,1.5,1.3
				C15.5,17.3,13.8,19.6,13.5,22.3z M32.9,23v3.4H15.1V23c0-0.1,0-0.1,0-0.2c0-0.1,0-0.2,0-0.3v-0.1c0-0.1,0-0.1,0-0.2V22V22v-0.1
				v-0.1l0-0.1l0.1-0.2l0-0.1c0.8-2.4,3-4,5.5-4l0.2-0.1h6.2c2.9,0,5.4,2.2,5.8,5.1c0,0.1,0,0.2,0,0.4C32.9,22.8,32.9,22.9,32.9,23z
				 M46.4,23.4H34.5V23c0-0.1,0-0.1,0-0.2c0-0.1,0-0.1,0-0.2c0-0.1,0-0.2,0-0.3v-0.1v-0.1V22v0v-0.1v-0.1v0v-0.1v-0.1v0v-0.1v0v-0.1
				v-0.1v-0.1v-0.1v-0.1l0-0.1v0v-0.1v0v-0.1v-0.1l-0.1-0.2c-0.7-1.9-2.2-3.4-4-4.2c0.3-0.5,0.7-0.9,1.2-1.3
				c0.9-0.5,1.9-0.7,2.9-0.7h6.2c3.2,0,5.8,2.6,5.8,5.8V23.4z"/>
		</g>
	</g>
	<g>
		<g>
			<path class="st0" d="M14.5,1.7c-1-1.1-2.5-1.7-4-1.7C7.4,0,4.9,2.5,4.9,5.6c0,3.1,2.5,5.6,5.6,5.6s5.6-2.5,5.6-5.6
				C16.1,4.1,15.5,2.7,14.5,1.7z M13.4,8.5c-1.6,1.6-4.1,1.6-5.7,0c-1.6-1.6-1.6-4.1,0-5.7c1.6-1.6,4.1-1.6,5.7,0
				c0.8,0.8,1.2,1.8,1.2,2.9S14.1,7.7,13.4,8.5z"/>
		</g>
	</g>
	<g>
		<g>
			<path class="st0" d="M37.5,0c-3.1,0-5.6,2.5-5.6,5.6c0,1.5,0.6,2.9,1.6,4s2.5,1.7,4,1.7c3.1,0,5.6-2.5,5.6-5.6S40.6,0,37.5,0z
				 M40.4,8.5c-1.6,1.6-4.1,1.6-5.7,0c-0.8-0.8-1.2-1.8-1.2-2.9s0.4-2.1,1.2-2.9c1.6-1.6,4.1-1.6,5.7,0C41.9,4.4,41.9,6.9,40.4,8.5z
				"/>
		</g>
	</g>
	<g>
		<g>
			<path class="st0" d="M28,4.6c-1.1-1-2.5-1.6-4-1.6c-1.5,0-2.9,0.6-4,1.7c-2.2,2.2-2.2,5.8,0,7.9s5.8,2.2,7.9,0S30.2,6.8,28,4.6z
				 M24,12.7c-2.2,0-4-1.8-4-4s1.8-4,4-4c1.1,0,2.1,0.4,2.9,1.2C27.6,6.6,28,7.6,28,8.6C28,10.9,26.2,12.7,24,12.7z"/>
		</g>
	</g>
</g>
</svg>
