<svg id="레이어_1" data-name="레이어 1" xmlns="http://www.w3.org/2000/svg" viewBox="0 0 960 285.91"><defs><style>.cls-1{fill:#ff7860;}.cls-2{fill:#ffbc68;}</style></defs><title>logo</title><path class="cls-1" d="M221,285.29c-21.1-3.43-37.22-19.85-48.73-36.64-17.65,23.28-45.28,37.4-76.36,37.4A95.8,95.8,0,0,1,0,190.24c0-52.67,43-95.05,95.93-95.05,53.34,0,95.54,42.38,95.54,95.05v8c0,21.38,11.9,42,29.55,51.15ZM95.93,131.46c-33.38,0-59.86,26-59.86,58.78a59.62,59.62,0,0,0,59.86,59.93c33.38,0,59.47-26.72,59.47-59.93C155.4,157.42,129.31,131.46,95.93,131.46Z" transform="translate(0 -0.15)"/><path class="cls-1" d="M462,257.43a94.7,94.7,0,0,1-67.92,28.62c-52.57,0-95.93-43.13-95.93-95.81,0-51.91,43.36-95.05,95.93-95.05a96.65,96.65,0,0,1,67.54,27.49l-25.33,25.58a59.58,59.58,0,0,0-42.21-17.18c-33.38,0-59.86,26.34-59.86,59.16,0,33.59,26.48,59.55,59.86,59.55,17.27,0,31.85-6.49,42.6-17.56Z" transform="translate(0 -0.15)"/><path class="cls-1" d="M701.39,286.05H665.32V190.24a59.87,59.87,0,0,0-119.72-.76v96.19H509.53V.15H545.6v116a95.9,95.9,0,0,1,155.79,74.05Z" transform="translate(0 -0.15)"/><path class="cls-1" d="M960,285.29c-21.11-3.43-37.22-19.85-48.73-36.64-17.66,23.28-45.28,37.4-76.36,37.4A95.79,95.79,0,0,1,739,190.24c0-52.67,43-95.05,95.93-95.05,53.33,0,95.54,42.38,95.54,95.05v8c0,21.38,11.9,42,29.55,51.15ZM834.91,131.46c-33.39,0-59.86,26-59.86,58.78a59.61,59.61,0,0,0,59.86,59.93c33.38,0,59.47-26.72,59.47-59.93C894.38,157.42,868.29,131.46,834.91,131.46Z" transform="translate(0 -0.15)"/><path class="cls-2" d="M216.69,121.9v-20c14.21-3.44,22.87-23.44,21.83-23.44-18,0-33.27-14.83-33.27-32.41,0-18.28,15.25-33.1,33.27-33.1s32.58,14.82,32.58,33.1C271.1,80.18,247.53,115.69,216.69,121.9Z" transform="translate(0 -0.15)"/></svg>