<?xml version="1.0" encoding="utf-8"?>
<!-- Generator: Adobe Illustrator 22.1.0, SVG Export Plug-In . SVG Version: 6.00 Build 0)  -->
<svg version="1.1" id="Layer_1" xmlns="http://www.w3.org/2000/svg" xmlns:xlink="http://www.w3.org/1999/xlink" x="0px" y="0px"
	 viewBox="0 0 47 49" style="enable-background:new 0 0 47 49;" xml:space="preserve">
<style type="text/css">
	.st0{fill:#fff;}
</style>
<path class="st0" d="M46,44.6L34.7,32.7c2.9-3.5,4.5-7.9,4.5-12.5C39.2,9.6,30.6,0.9,20,0.9S0.8,9.6,0.8,20.3S9.4,39.6,20,39.6
	c4,0,7.7-1.2,11-3.5l11.4,12c0.5,0.5,1.1,0.8,1.8,0.8c0.6,0,1.3-0.2,1.7-0.7C46.9,47.2,46.9,45.6,46,44.6z M20,5.9
	c7.8,0,14.2,6.4,14.2,14.3S27.8,34.6,20,34.6c-7.8,0-14.2-6.4-14.2-14.3S12.2,5.9,20,5.9z"/>
</svg>
