<svg 
 xmlns="http://www.w3.org/2000/svg"
 xmlns:xlink="http://www.w3.org/1999/xlink"
 width="46px" height="22px">
<path fill-rule="evenodd"  fill="rgb(102, 102, 102)"
 d="M46.000,20.375 L46.000,21.880 L-0.000,21.880 L-0.000,20.375 L3.084,20.375 L4.877,15.108 C3.763,15.052 2.843,14.226 2.713,13.130 L1.536,3.366 C1.527,3.278 1.518,3.173 1.518,3.076 C1.527,1.835 2.560,0.840 3.818,0.840 C3.836,0.840 3.845,0.840 3.863,0.840 C4.986,0.840 5.957,1.667 6.127,2.768 L7.367,10.612 L14.375,10.620 C15.642,10.620 16.675,11.624 16.675,12.865 C16.675,14.107 15.642,15.119 14.375,15.119 L13.910,15.119 L15.698,20.375 L20.709,20.375 L20.709,8.340 L12.264,8.340 C11.841,8.340 11.500,8.006 11.500,7.592 L11.500,4.590 C11.500,4.176 11.841,3.842 12.264,3.842 L33.736,3.842 C34.159,3.842 34.500,4.176 34.491,4.599 L34.491,7.592 C34.491,8.006 34.150,8.340 33.727,8.340 L25.300,8.340 L25.300,20.375 L30.303,20.375 L32.087,15.137 L31.625,15.137 C30.358,15.137 29.325,14.124 29.325,12.883 C29.325,11.642 30.358,10.629 31.625,10.629 L38.633,10.612 L39.873,2.759 C40.034,1.667 41.014,0.840 42.146,0.840 C42.164,0.840 42.173,0.840 42.191,0.840 C43.440,0.840 44.473,1.835 44.473,3.085 C44.473,3.182 44.464,3.287 44.455,3.384 L43.287,13.147 C43.157,14.243 42.239,15.068 41.126,15.126 L42.911,20.375 L46.000,20.375 ZM14.375,13.623 C14.797,13.623 15.139,13.288 15.130,12.865 C15.130,12.452 14.788,12.117 14.366,12.117 L6.702,12.100 C6.325,12.100 6.002,11.835 5.948,11.466 L4.609,2.988 C4.546,2.609 4.223,2.336 3.845,2.336 C3.836,2.336 3.836,2.336 3.827,2.336 C3.396,2.336 3.046,2.671 3.046,3.085 C3.046,3.111 3.055,3.146 3.055,3.182 L4.232,12.953 C4.277,13.341 4.609,13.623 4.995,13.623 C5.004,13.623 5.004,13.623 5.004,13.623 L14.375,13.623 ZM12.291,15.119 L6.493,15.119 L4.704,20.375 L14.078,20.375 L12.291,15.119 ZM32.964,6.853 L32.973,5.347 L13.036,5.347 L13.036,6.853 L21.473,6.853 L24.536,6.853 L32.964,6.853 ZM23.764,8.349 L22.227,8.349 L22.227,20.375 L23.764,20.375 L23.764,8.349 ZM41.759,12.962 L42.936,3.190 C42.945,3.155 42.945,3.120 42.936,3.102 C42.936,2.689 42.595,2.354 42.173,2.354 C42.164,2.354 42.164,2.354 42.155,2.354 C41.759,2.354 41.436,2.627 41.382,2.997 L40.043,11.483 C39.989,11.844 39.666,12.117 39.289,12.117 L31.625,12.135 C31.203,12.135 30.861,12.469 30.861,12.883 C30.861,13.297 31.203,13.631 31.625,13.631 L40.987,13.631 C40.996,13.631 40.996,13.631 40.996,13.631 C41.391,13.631 41.714,13.341 41.759,12.962 ZM39.510,15.137 L33.707,15.137 L31.923,20.375 L41.292,20.375 L39.510,15.137 Z"/>
</svg>